<svg xmlns="http://www.w3.org/2000/svg" xmlns:xlink="http://www.w3.org/1999/xlink" version="1.1" x="0px" y="0px" viewBox="0 0 95 95" enable-background="new 0 0 95 95" xml:space="preserve"><path d="M94.736,37.654c-0.385-2.884-3.183-6.419-3.997-7.506c-0.821-1.08-3.426-4.539-6.459-6.857  c-2.78-2.125-9.743-5.953-14.232-6.457l0,0c0,0-7.037-2.049-13.751-2.049S34.38,17.03,34.38,17.03l-10.568,0.763  c-1.293-0.619-2.739-0.97-4.265-0.963c-5.372,0.021-9.705,4.392-9.683,9.761c0.002,0.348,0.021,0.688,0.059,1.025  c-1.347,1.831-2.144,4.097-2.133,6.546c0.002,0.143,0.01,0.282,0.015,0.422c-0.185,1.955,0.007,4.509,0.019,7.596  c0.03,7.135,0.607,12.429-0.865,17.466c-0.984,3.374-6.75,7.625-6.731,12.406c0.007,2.367,0.977,5.053,1.887,5.05  c0.604-0.002,0.461-0.743,0.733-1.158c0.278-0.408,1.241,0.051,1.239-0.576c-0.005-0.632-1.487-0.79-1.494-2.443  C2.565,66.097,9.83,68.06,13.735,55.225c1.973-6.478,1.911-8.35,6.585-10.219c1.36-0.188,2.639-0.628,3.789-1.263h0.003l0,0l0,0  l0.002-0.001l0,0l0.078-0.034c-0.022,0.003-0.034,0.007-0.048,0.016c0.019-0.013,0.038-0.019,0.053-0.031l-0.004,0.016  c0.159-0.028,0.577,0.081,1.435,1.379c1.154,1.745,0.427,8.947,0.062,15.138c-0.368,6.18-1.453,15.236-1.453,15.236l0.002,0.004  c-2.116,0.665-3.817,2.443-3.814,4.051c0.004,0.869,10.68,0.364,10.677-0.122c-0.005-1.165-0.387-2.081-1.027-2.757  c0.436-1.285,2.048-5.952,4.409-11.72c2.783-6.807,5.409-10.658,5.409-10.658l1.868,0.102c0,0,1.112,3.308,1.564,6.207  c0.451,2.904,1.051,8.284,1.051,8.284c0.827,2.625,3.279,4.515,6.179,4.509l3.789,0.774l-0.002-0.008  c0.873,1.032,2.038,1.691,3.1,1.643c0.012,0,0.021-0.007,0.034-0.015c0.031,0.003,0.062,0.012,0.097,0.008  c1.146-0.053,1.973-2.272,1.84-4.953c-0.131-2.684-1.166-4.811-2.306-4.752c-0.064,0-0.124,0.011-0.184,0.028  c-0.001-0.005-0.001-0.005-0.001-0.011c-0.01-0.004-0.019-0.011-0.031-0.011c-1.098,0.056-1.946,0.417-2.576,0.999  c0,0-0.684,0.548-1.318-0.165c-0.401-0.448-0.2-3.65,0.007-5.951c0.114-1.336,0.233-2.372,0.233-2.372l-0.004-0.003  c0.855,0.12,2.016,0.222,3.52,0.222c3.167,0,5.211-0.731,5.855-0.888s1.61-0.176,2.443-0.182c1.632-0.005,2.218,0.214,3.726,0.617  c0.264,1.507,1.537,5.163,1.618,8.828c0.107,4.83-1.221,6.854-1.221,6.854l0,0c-1.742,0.892-2.338,2.143-2.251,3.955  c0.042,0.867,9.677,0.365,9.677-0.13c0,0,1.942-5.272,1.931-8.13c-0.012-2.859-0.991-7.669-0.991-7.669l-0.101-0.753  c3.138,2.953,5.218,7.022,5.594,11.586c0.041,0.469,0.438,2.714,0.387,2.783c-1.5,0.75-2.176,2.094-2.166,4.024  c0.005,1.006,10.493,0.428,10.488-0.144c0.003-0.19,0.24-1.421,0.237-2.091c-0.007-1.649-0.012-2.8-0.019-4.616  c-0.005-1.816-3.642-9.375-3.649-11.849c-0.01-1.82,0.036-8.543,0.588-11.974c0.109-0.234,2.078-5.433,2.063-8.565  c-0.003-1.078-1.28-5.267-2.999-9.437c0.24,0.26,0.618,0.51,0.849,0.781c0.803,0.949,3.354,3.274,3.809,6.176  c0.347,2.208-0.061,3.808-0.118,4.552c-0.226,2.987-1.09,5.723-1.375,8.566c-0.137,1.424-0.248,2.823-0.168,4.159  c0.081,1.332,0.274,2.558,0.469,3.683c0.399,2.244,0.792,2.172,0.567-0.076c-0.109-1.13-0.207-2.348-0.188-3.621  c0.021-1.265,0.223-2.598,0.463-3.985c0.492-2.777,1.584-5.484,2.046-8.512C94.432,41.981,94.902,38.948,94.736,37.654z   M24.114,43.742L24.114,43.742L24.114,43.742L24.114,43.742z"/></svg>