<svg xmlns="http://www.w3.org/2000/svg" xmlns:xlink="http://www.w3.org/1999/xlink" version="1.1" x="0px" y="0px" viewBox="0 0 95 95" enable-background="new 0 0 95 95" xml:space="preserve"><path d="M60.686,57.398c0,0-1.434,1.597-2.703,2.715c-1.273,1.12-2.387,2.062-2.387,2.846c0,0.791,4.605,1.747,4.605,7.948  c0,3.657-3.807,6.195-14.846,6.195c-7.636,0-14.206-0.402-14.206,0.231c0,0.642,6.591,2.307,12.69,2.15  c8.514-0.226,14.412-1.31,14.934-0.327c0.414,0.78-0.436,1.327-1.711,1.655c-1.27,0.326-4.812,0.75-4.812,1.438  s4.951,0.123,6.375,0.188c2.75,0.125,3.25,0.495,3.25,1.438c0,1.375-2.308,1.07-4.688,1c-2.125-0.062-3.873-0.394-4.312,0.312  s7,2.062,6.438,3.688c-0.435,1.256-2.625,0.562-5.25-0.438c-1.98-0.755-5.453-1.804-7.834-1.968  c-2.388-0.156-10.016-0.177-17.63-0.873C18.2,84.635,0.017,74.319,0.017,67.885c0-2.531,3.063-3.793,3.329-4.762  C5.66,54.71,11.848,37.981,19.08,32.072c6.113-5.007,13.101-5.39,27.148-11.83c10.364-4.735,13.112-5.637,16.04-7.697  c1.883-1.323,3.502-4.373,4.457-5.485c0.947-1.112,3.49-2.231,5.395-2.231c3.248,0,4.838,2.784,8.412,3.978  c2.977,0.996,12.07,2.387,12.07,5.88c0,3.807-0.627,9.048-5.867,17.146c-5.246,8.105-11.279,14.771-12.07,16.374  c-0.797,1.569-1.043,5.146-2.312,8.481c-1.27,3.328-2.611,6.508-2.299,7.45c0.32,0.97,8.262,8.037,9.846,8.037  c1.59,0,5.986-1.594,7.727-2.427c2.77-1.351,4.73-1.23,4.82-0.426c0.156,1.42-6.298,3.041-5.82,4.176  c0.5,1.188,8.375-0.143,8.375,1.375c0,0.75-1.062,1.188-2.812,1.312c-2.283,0.163-4.625,0.125-4.625,1.188  c0,1.118,6.312,1.125,6.316,2.58c0.001,0.437-0.414,0.795-1.691,0.795c-3.555,0-11.564-1.584-12.791-2.075  c-1.59-0.628-17.605-7.768-18.078-12.857c-0.477-5.075,0-8.255,0-8.255L60.686,57.398z"/></svg>