<svg xmlns="http://www.w3.org/2000/svg" xmlns:xlink="http://www.w3.org/1999/xlink" version="1.1" x="0px" y="0px" viewBox="0 0 100 100" enable-background="new 0 0 100 100" xml:space="preserve"><path d="M95.947,32.521c0,2.479-2.01,4.49-4.489,4.49c-1.136,0-2.17-0.427-2.961-1.124l-0.004,0.002l-6.231-5.431  c-0.613,0.339-1.318,0.534-2.07,0.534c-1.356,0-2.563-0.633-3.35-1.616c-0.904,1.196-2.468,3.73-2.861,7.354  c0.768,1.59,2.461,5.749,2.844,12.031c0.162,1.88-0.699,4.185-2.32,6.287c-0.22,0.998-0.441,1.927-0.662,2.791l4.854,4.494  c0,0,2.59,1.469,2.297,5.476c-0.293,4.008,0.184,9.352,0.184,9.352s-0.604,1.459-2.205,2.662c-0.419,0.352-0.887,0.219-0.887,0.219  c-0.968-0.248-2.102,1.068-2.161,2.02c-0.043,0.687-0.983,1.172-1.504,1.394l-2.328,2.252l-1.29-5.729c0,0-0.359-1.425,1.952-2.271  l-0.104-0.463c0,0,0.387-0.31,1.703-0.543c0.502-0.089,0.862-0.037,1.155,0.047c-0.208-0.711-0.339-1.619,0.077-2.201  c2.195-3.055,0.331-2.819,0.499-6.252c0,0-1.334-0.196-1.784-1.881c0,0-1.176-0.375-2.958-0.988  c-1.173,2.688-2.094,3.767-2.38,4.345c-0.529,1.065-1.115,2.489-1.115,2.489s-0.009,5.966,0.756,7.566  c0.765,1.602,0.793,2.938,0.338,3.825c-0.457,0.894-0.08,2.138,0.834,2.404c0.66,0.193,0.929,1.217,1.026,1.773l1.687,2.766h-5.873  c0,0-1.467,0.039-1.785-2.402h-0.475c0,0-0.217-0.444-0.156-1.78c0.062-1.334,0.847-1.513,0.783-2.226  c-0.062-0.713-0.599-0.713-1.145-1.867c-0.547-1.159,0.197-2.051,0.197-2.051s-1.502-8.721-1.704-10.145  c-0.203-1.426-1.011-2.578-0.407-4.629c-0.105-1.209-0.316-2.568-0.566-3.912c-0.724-0.32-1.424-0.645-2.086-0.971  c-0.604-0.141-1.215-0.318-1.834-0.545c-10.962-3.994-17.931-4.926-19.975-5.109c-0.484-0.045-1.075-0.014-1.719,0.062  c-1.843,11.004-4.313,13.696-4.777,14.748c-0.473,1.065-0.985,2.489-0.985,2.489s0.304,5.966,1.152,7.566  c0.849,1.602,0.947,2.938,0.539,3.825c-0.409,0.894,0.033,2.138,0.96,2.404c0.669,0.193,0.992,1.217,1.119,1.773l1.833,2.766h-5.875  c0,0-1.465,0.039-1.912-2.402h-0.473c0,0-0.24-0.444-0.25-1.78c-0.009-1.334,0.767-1.513,0.667-2.226  c-0.1-0.713-0.634-0.713-1.242-1.867c-0.607-1.159,0.09-2.051,0.09-2.051s-1.959-8.721-2.236-10.145  c-0.062-0.32-0.215-0.666-0.395-1.021c-0.45,0.281-0.752,0.494-0.851,0.666c-0.623,1.066-1.335,2.49-1.335,2.49  s-0.534,5.965,0.089,7.566c0.623,1.601,0.533,2.938,0,3.826c-0.534,0.893-0.267,2.137,0.623,2.403  c0.642,0.193,0.82,1.218,0.871,1.773l1.443,2.766h-5.874c0,0-1.471,0.039-1.574-2.401h-0.473c0,0-0.177-0.445,0-1.781  c0.178-1.334,0.979-1.512,0.979-2.225s-0.534-0.713-0.979-1.867c-0.445-1.16,0.377-2.051,0.377-2.051s-0.732-8.722-0.809-10.146  c-0.078-1.427-1.882-3.384,0-4.629c4.195-2.314,1.785-11.084,1.785-11.084c-0.15-0.373-0.273-0.72-0.385-1.058  c-0.712-1.965-1.333-4.657-0.957-7.545c-7.413,10.391-6.375,28.289-6.375,28.289L8.474,71.57l0.573-11.838L7.821,71.025L4.053,67.23  C4,48.298,13.369,41.405,20.061,38.897c0.872-1.002,1.951-1.972,3.277-2.894c7.432-4.739,14.215-0.371,17.56,0  c3.344,0.371,12.764-0.468,12.764-0.468s3.765-3.644,6.074-5.532c3.125-6.587,9.689-14.697,23.371-17.23  c0,0,2.213-2.966,5.051-3.365l-1.684,4.824c0,0,2.273,0.136,3.592,3.295l5.484,13.154l-0.002,0.002  C95.803,31.245,95.947,31.867,95.947,32.521z"/></svg>