<svg xmlns="http://www.w3.org/2000/svg" xmlns:xlink="http://www.w3.org/1999/xlink" width="100" height="100" viewBox="0 0 100 100"><g><g transform="translate(50 50) scale(0.69 0.69) rotate(0) translate(-50 -50)" style="fill:#000000"><svg fill="#000000" xmlns="http://www.w3.org/2000/svg" xmlns:xlink="http://www.w3.org/1999/xlink" version="1.1" x="0px" y="0px" viewBox="0 0 100 100" enable-background="new 0 0 100 100" xml:space="preserve"><path fill="#000000" d="M34.241,15.294c20.558,1.161,19.574,21.739,20.072,24.472c1.158,6.357,11.152,3.685,12.538-5.272  c1.595-10.311,6.618-10.891,12.42-13.212c5.804-2.321-8.836-2.864-7.075-7.521c1.87-4.947,3.688,2.294,4.898,0.495  c3.562-5.295,3.201,0.833,4.552-0.792c3.039-3.652,3.617,1.833,4.097,1.182c1.743-2.369,3.314-1.37,3.314-1.37  c2.225,1.459,0.262,3.906,0.994,3.525c3.036-1.572,6.782,0,6.782,0l-3.963,4.477l3.856,0.619c0,0-2.529,1.537-4.519,2.863  c-1.991,1.326,1.974,7.908-2.157,8.289c-3.966,0.365-2.223-4.907-3.716-4.907c-1.491,0-5.347,4.681-4.739,15.519  c0.89,15.868-10.137,18.419-11.997,26.604c-1.888,8.289-6.195,5.949-6.36,8.271s-1.236,9.156,1.447,9.223  C73.204,87.979,71.947,91,71.947,91H49.779c-0.199-4.01,2.321-2.283,7.028-3.473c1.006-0.254-5.039-0.213-5.014-1.619  c0.037-2.047,5.229-0.789,5.062-2.613c-0.165-1.824-1.533-11.143-5.929-16.096c-6.791-7.646-18.318-6.924-18.368-8.854  c-0.087-3.393,8.752-1.357,6.632-2.375c-9.798-4.702-15.292,5.689-15.62,4.268c-1.106-4.783,6.464-10.701,5.319-10.597  c-4.624,0.416-8.801,6.033-9.033,4.968c-1.556-7.139,7.159-12.94,6.714-13.039c-3.336-0.743-9.154,7.076-9.352,5.839  c-1.054-6.579,3.513-11.284,1.798-10.359c-7.98,4.306-8.727,17.632-9.617,14.416c-3.016-10.889,4.799-20.635,3.756-19.936  c-3.519,2.358-9.15,10.966-9.15,9.309c0-1.658-0.331-7.295,3.979-13.761C12.296,20.613,20.466,14.516,34.241,15.294 M88,18.6  c0-0.773-0.627-1.4-1.399-1.4l0,0c-0.773,0-1.4,0.627-1.4,1.4l0,0c0,0.773,0.627,1.4,1.4,1.4l0,0C87.373,20,88,19.373,88,18.6  L88,18.6z"></path></svg></g></g></svg>