<?xml version="1.0" ?><!DOCTYPE svg  PUBLIC '-//W3C//DTD SVG 1.1//EN'  'http://www.w3.org/Graphics/SVG/1.1/DTD/svg11.dtd'><svg height="6.82666in" style="shape-rendering:geometricPrecision; text-rendering:geometricPrecision; image-rendering:optimizeQuality; fill-rule:evenodd; clip-rule:evenodd" viewBox="0 0 6.82666 6.82666" width="6.82666in" xml:space="preserve" xmlns="http://www.w3.org/2000/svg" xmlns:xlink="http://www.w3.org/1999/xlink"><defs><style type="text/css">
   <![CDATA[
    .fil2 {fill:none}
    .fil1 {fill:#C2E4F8}
    .fil0 {fill:#0A93E2;fill-rule:nonzero}
   ]]>
  </style></defs><g id="Layer_x0020_1"><path class="fil0" d="M1.36348 1.04811l4.09971 0c0.140508,0 0.268102,0.0573307 0.360457,0.149685 0.0923543,0.0923622 0.149685,0.219945 0.149685,0.360461l0 3.71015c0,0.140516 -0.0573307,0.268098 -0.149685,0.360461 -0.0923543,0.0923543 -0.219949,0.149685 -0.360457,0.149685l-4.09971 0c-0.140516,0 -0.268098,-0.0573307 -0.360461,-0.149685 -0.0923543,-0.0923622 -0.149685,-0.219945 -0.149685,-0.360461l0 -3.71015c0,-0.140516 0.0573307,-0.268098 0.149685,-0.360461 0.0923622,-0.0923543 0.219945,-0.149685 0.360461,-0.149685zm4.09971 0.426669l-4.09971 0c-0.0227323,0 -0.043563,0.00945669 -0.0587913,0.024685 -0.0152283,0.0152283 -0.024685,0.0360591 -0.024685,0.0587913l0 3.71015c0,0.0227323 0.00945669,0.043563 0.024685,0.0587913 0.0152283,0.0152283 0.0360591,0.024685 0.0587913,0.024685l4.09971 0c0.0227323,0 0.0435591,-0.00945669 0.0587874,-0.024685 0.0152283,-0.0152283 0.024685,-0.0360591 0.024685,-0.0587913l0 -3.71015c0,-0.0227323 -0.00945669,-0.043563 -0.024685,-0.0587913 -0.0152283,-0.0152283 -0.0360551,-0.024685 -0.0587874,-0.024685z"/><polygon class="fil0" points="1.06667,2.21984 5.76,2.21984 5.76,2.64651 1.06667,2.64651 "/><path class="fil0" d="M3.76752 4.96816l-0.369791 0 0 -1.39424c-0.135244,0.126709 -0.294307,0.220165 -0.47763,0.280374l0 -0.335642c0.0961575,-0.0314528 0.201299,-0.0912126 0.314528,-0.17928 0.113228,-0.0885157 0.190961,-0.191409 0.232748,-0.30913l0.300146 0 0 1.93792z"/><path class="fil1" d="M1.28 2.21984l4.26666 0 0 -0.661583c0,-0.0227323 -0.00945669,-0.043563 -0.024685,-0.0587913 -0.0152283,-0.0152283 -0.0360551,-0.024685 -0.0587874,-0.024685l-4.09971 0c-0.0227323,0 -0.043563,0.00945669 -0.0587913,0.024685 -0.0152283,0.0152283 -0.024685,0.0360591 -0.024685,0.0587913l0 0.661583z"/><path class="fil1" d="M5.54666 2.64651l-4.26666 0 0 2.62189c0,0.0227323 0.00945669,0.043563 0.024685,0.0587913 0.0152283,0.0152283 0.0360591,0.024685 0.0587913,0.024685l4.09971 0c0.0227323,0 0.0435591,-0.00945669 0.0587874,-0.024685 0.0152283,-0.0152283 0.024685,-0.0360591 0.024685,-0.0587913l0 -2.62189zm-2.14893 2.32165l0 -1.39424c-0.135244,0.126709 -0.294307,0.220165 -0.47763,0.280374l0 -0.335642c0.0961575,-0.0314528 0.201299,-0.0912126 0.314528,-0.17928 0.113228,-0.0885157 0.190961,-0.191409 0.232748,-0.30913l0.300146 0 0 1.93792 -0.369791 0z"/></g><rect class="fil2" height="6.82666" width="6.82666"/></svg>