<?xml version="1.0" ?><svg viewBox="0 0 64 64" xmlns="http://www.w3.org/2000/svg"><title/><g id="outline"><path d="M49,35V7a1,1,0,0,0-1-1H16a1,1,0,0,0-1,1V49a1,1,0,0,0,1,1H48a1,1,0,0,0,1-1ZM23,48H21V42h2Zm4,0H25V42h2Zm4,0H29V41a1,1,0,0,0-1-1H20a1,1,0,0,0-1,1v7H17V36H31Zm0-14H17V22H31ZM17.058,20V12h2v8Zm5.775,0H21.058V16.186Zm-.506-5.828,1.813-.843,2.531,5.439-1.813.844ZM31,20H28.639a.988.988,0,0,0,.268-1.169l-3.375-7.253a1,1,0,0,0-1.329-.485l-3.145,1.464V11a1,1,0,0,0-1-1H17V8H31ZM47,48H33V36H47ZM37,34V28h2v6Zm4,0V26h2v8Zm6,0H45V25a1,1,0,0,0-1-1H40a1,1,0,0,0-1,1v1H36a1,1,0,0,0-1,1v7H33V22H47Zm0-14H33V8H47Z"/><path d="M45,62h4a1,1,0,0,0,1-1V54a3,3,0,0,0,3-3V5a3,3,0,0,0-3-3H14a3,3,0,0,0-3,3V51a3,3,0,0,0,3,3v7a1,1,0,0,0,1,1h4a1,1,0,0,0,1-1V59a1,1,0,0,1,1-1H43a1,1,0,0,1,1,1v2A1,1,0,0,0,45,62ZM14,52a1,1,0,0,1-1-1V5a1,1,0,0,1,1-1H50a1,1,0,0,1,1,1V51a1,1,0,0,1-1,1H14Zm29,4H21a3,3,0,0,0-3,3v1H16V54H48v6H46V59A3,3,0,0,0,43,56Z"/><path d="M41,41H39a1,1,0,0,0,0,2h2a1,1,0,0,0,0-2Z"/><path d="M23,29h2a1,1,0,0,0,0-2H23a1,1,0,0,0,0,2Z"/><path d="M39,15h2a1,1,0,0,0,0-2H39a1,1,0,0,0,0,2Z"/></g></svg>